{
    "asset" : {
        "generator" : "Khronos glTF Blender I/O v1.3.48",
        "version" : "2.0"
    },
    "scene" : 0,
    "scenes" : [
        {
            "name" : "Scene",
            "nodes" : [
                1
            ]
        }
    ],
    "nodes" : [
        {
            "mesh" : 0,
            "name" : "Pikachu",
            "rotation" : [
                0.7071068286895752,
                0,
                0,
                0.7071067094802856
            ],
            "scale" : [
                1.9821408987045288,
                1.9821408987045288,
                1.9821408987045288
            ]
        },
        {
            "children" : [
                0
            ],
            "name" : "Empty.001"
        }
    ],
    "animations" : [
        {
            "channels" : [
                {
                    "sampler" : 0,
                    "target" : {
                        "node" : 1,
                        "path" : "rotation"
                    }
                }
            ],
            "name" : "Animation",
            "samplers" : [
                {
                    "input" : 4,
                    "interpolation" : "LINEAR",
                    "output" : 5
                }
            ]
        }
    ],
    "materials" : [
        {
            "alphaMode" : "BLEND",
            "doubleSided" : true,
            "emissiveFactor" : [
                0,
                0,
                0
            ],
            "name" : "Material.001",
            "pbrMetallicRoughness" : {
                "baseColorFactor" : [
                    0.7687013745307922,
                    1,
                    0,
                    0.699999988079071
                ],
                "metallicFactor" : 0,
                "roughnessFactor" : 0.20000000298023224
            }
        }
    ],
    "meshes" : [
        {
            "name" : "Pikachu",
            "primitives" : [
                {
                    "attributes" : {
                        "POSITION" : 0,
                        "NORMAL" : 1,
                        "TEXCOORD_0" : 2
                    },
                    "indices" : 3,
                    "material" : 0
                }
            ]
        }
    ],
    "accessors" : [
        {
            "bufferView" : 0,
            "componentType" : 5126,
            "count" : 5549,
            "max" : [
                0.0781904011964798,
                0.06465759873390198,
                -4.880510095972568e-05
            ],
            "min" : [
                -0.07804080098867416,
                -0.1784760057926178,
                -0.20479699969291687
            ],
            "type" : "VEC3"
        },
        {
            "bufferView" : 1,
            "componentType" : 5126,
            "count" : 5549,
            "type" : "VEC3"
        },
        {
            "bufferView" : 2,
            "componentType" : 5126,
            "count" : 5549,
            "type" : "VEC2"
        },
        {
            "bufferView" : 3,
            "componentType" : 5123,
            "count" : 7956,
            "type" : "SCALAR"
        },
        {
            "bufferView" : 4,
            "componentType" : 5126,
            "count" : 152,
            "max" : [
                6.291666666666667
            ],
            "min" : [
                0
            ],
            "type" : "SCALAR"
        },
        {
            "bufferView" : 5,
            "componentType" : 5126,
            "count" : 152,
            "type" : "VEC4"
        }
    ],
    "bufferViews" : [
        {
            "buffer" : 0,
            "byteLength" : 66588,
            "byteOffset" : 0
        },
        {
            "buffer" : 0,
            "byteLength" : 66588,
            "byteOffset" : 66588
        },
        {
            "buffer" : 0,
            "byteLength" : 44392,
            "byteOffset" : 133176
        },
        {
            "buffer" : 0,
            "byteLength" : 15912,
            "byteOffset" : 177568
        },
        {
            "buffer" : 0,
            "byteLength" : 608,
            "byteOffset" : 193480
        },
        {
            "buffer" : 0,
            "byteLength" : 2432,
            "byteOffset" : 194088
        }
    ],
    "buffers" : [
        {
            "byteLength" : 196520,
            "uri" : "data:application/octet-stream;base64,"
        }
    ]
}
